{
  "accessors": [
    {
      "bufferView": 2,
      "componentType": 5126,
      "count": 12410,
      "max": [
        179.29696655273438,
        138.07331848144531,
        370.84579467773438
      ],
      "min": [
        -179.29696655273438,
        -138.07331848144531,
        -370.84579467773438
      ],
      "type": "VEC3"
    },
    {
      "bufferView": 2,
      "byteOffset": 148920,
      "componentType": 5126,
      "count": 12410,
      "max": [
        1,
        1,
        1
      ],
      "min": [
        -1,
        -1,
        -1
      ],
      "type": "VEC3"
    },
    {
      "bufferView": 3,
      "componentType": 5126,
      "count": 12410,
      "max": [
        1,
        1,
        1,
        1
      ],
      "min": [
        -1,
        -1,
        -1,
        -1
      ],
      "type": "VEC4"
    },
    {
      "bufferView": 1,
      "componentType": 5126,
      "count": 12410,
      "max": [
        0.99534398317337036,
        0.99595201015472412
      ],
      "min": [
        0.0067843100987374783,
        0.0056163668632507324
      ],
      "type": "VEC2"
    },
    {
      "bufferView": 1,
      "byteOffset": 99280,
      "componentType": 5126,
      "count": 12410,
      "max": [
        0.99534398317337036,
        0.99595201015472412
      ],
      "min": [
        0.0067843100987374783,
        0.0056163668632507324
      ],
      "type": "VEC2"
    },
    {
      "bufferView": 1,
      "byteOffset": 198560,
      "componentType": 5126,
      "count": 12410,
      "max": [
        0.99534398317337036,
        0.99595201015472412
      ],
      "min": [
        0.0067843100987374783,
        0.0056163668632507324
      ],
      "type": "VEC2"
    },
    {
      "bufferView": 1,
      "byteOffset": 297840,
      "componentType": 5126,
      "count": 12410,
      "max": [
        0.99534398317337036,
        0.99595201015472412
      ],
      "min": [
        0.0067843100987374783,
        0.0056163668632507324
      ],
      "type": "VEC2"
    },
    {
      "bufferView": 1,
      "byteOffset": 397120,
      "componentType": 5126,
      "count": 12410,
      "max": [
        0.99534398317337036,
        0.99595201015472412
      ],
      "min": [
        0.0067843100987374783,
        0.0056163668632507324
      ],
      "type": "VEC2"
    },
    {
      "bufferView": 1,
      "byteOffset": 496400,
      "componentType": 5126,
      "count": 12410,
      "max": [
        0.99534398317337036,
        0.99595201015472412
      ],
      "min": [
        0.0067843100987374783,
        0.0056163668632507324
      ],
      "type": "VEC2"
    },
    {
      "bufferView": 1,
      "byteOffset": 595680,
      "componentType": 5126,
      "count": 12410,
      "max": [
        0.99534398317337036,
        0.99595201015472412
      ],
      "min": [
        0.0067843100987374783,
        0.0056163668632507324
      ],
      "type": "VEC2"
    },
    {
      "bufferView": 0,
      "componentType": 5125,
      "count": 34818,
      "max": [
        12409
      ],
      "min": [
        0
      ],
      "type": "SCALAR"
    }
  ],
  "asset": {
    "extras": {
      "author": "Wholock (https://sketchfab.com/wholock)",
      "license": "CC-BY-4.0 (http://creativecommons.org/licenses/by/4.0/)",
      "source": "https://sketchfab.com/3d-models/star-trek-dkyr-class-81a01b719ec4437ea47342aa7c944cca",
      "title": "Star Trek - Dkyr Class"
    },
    "generator": "Sketchfab-6.28.0",
    "version": "2.0"
  },
  "bufferViews": [
    {
      "buffer": 0,
      "byteLength": 139272,
      "byteOffset": 0,
      "name": "floatBufferViews",
      "target": 34963
    },
    {
      "buffer": 0,
      "byteLength": 694960,
      "byteOffset": 139272,
      "byteStride": 8,
      "name": "floatBufferViews",
      "target": 34962
    },
    {
      "buffer": 0,
      "byteLength": 297840,
      "byteOffset": 834232,
      "byteStride": 12,
      "name": "floatBufferViews",
      "target": 34962
    },
    {
      "buffer": 0,
      "byteLength": 198560,
      "byteOffset": 1132072,
      "byteStride": 16,
      "name": "floatBufferViews",
      "target": 34962
    }
  ],
  "buffers": [
    {
      "byteLength": 1330632,
      "uri": "scene.bin"
    }
  ],
  "images": [
    {
      "uri": "textures/Dkyr_diffuse_1_baseColor.png"
    },
    {
      "uri": "textures/Dkyr_diffuse_1_metallicRoughness.png"
    },
    {
      "uri": "textures/Dkyr_diffuse_1_emissive.png"
    }
  ],
  "materials": [
    {
      "doubleSided": true,
      "emissiveFactor": [
        1,
        1,
        1
      ],
      "emissiveTexture": {
        "index": 2,
        "texCoord": 0
      },
      "name": "Dkyr_diffuse_1",
      "pbrMetallicRoughness": {
        "baseColorFactor": [
          1,
          1,
          1,
          1
        ],
        "baseColorTexture": {
          "index": 0,
          "texCoord": 0
        },
        "metallicFactor": 0,
        "metallicRoughnessTexture": {
          "index": 1,
          "texCoord": 0
        },
        "roughnessFactor": 1
      }
    }
  ],
  "meshes": [
    {
      "name": "Dkyr_Class_D`kyr_diffuse_1_0",
      "primitives": [
        {
          "attributes": {
            "NORMAL": 1,
            "POSITION": 0,
            "TANGENT": 2,
            "TEXCOORD_0": 3,
            "TEXCOORD_1": 4,
            "TEXCOORD_2": 5,
            "TEXCOORD_3": 6,
            "TEXCOORD_4": 7,
            "TEXCOORD_5": 8,
            "TEXCOORD_6": 9
          },
          "indices": 10,
          "material": 0,
          "mode": 4
        }
      ]
    }
  ],
  "nodes": [
    {
      "children": [
        1
      ],
      "name": "RootNode (gltf orientation matrix)",
      "rotation": [
        -0.70710678118654746,
        -0,
        -0,
        0.70710678118654757
      ]
    },
    {
      "children": [
        2
      ],
      "matrix": [
        -1,
        -2.832769343193999e-16,
        0,
        0,
        2.832769343193999e-16,
        -1,
        0,
        0,
        0,
        0,
        1,
        0,
        0.001495361328125,
        0.001129150390625,
        0,
        1
      ],
      "name": "RootNode (model correction matrix)"
    },
    {
      "children": [
        3
      ],
      "matrix": [
        1,
        0,
        0,
        0,
        0,
        0,
        1,
        0,
        0,
        -1,
        0,
        0,
        0,
        0,
        0,
        1
      ],
      "name": "2fe250e3147f48789bab333d5f167de1.fbx"
    },
    {
      "children": [
        4,
        6,
        9
      ],
      "name": "RootNode"
    },
    {
      "children": [
        5
      ],
      "name": "Dkyr_Class"
    },
    {
      "mesh": 0,
      "name": "Dkyr_Class_D`kyr_diffuse_1_0"
    },
    {
      "children": [
        7
      ],
      "matrix": [
        0.70710678118654757,
        0,
        0.70710678118654746,
        0,
        -0.57922796533956922,
        0.57357643635104594,
        0.57922796533956944,
        0,
        -0.4055797876726388,
        -0.81915204428899202,
        0.4055797876726388,
        0,
        -200,
        200,
        200,
        1
      ],
      "name": "Light"
    },
    {
      "children": [
        8
      ],
      "matrix": [
        1,
        0,
        0,
        0,
        0,
        2.2204460492503131e-16,
        1,
        0,
        0,
        -1,
        2.2204460492503131e-16,
        0,
        0,
        0,
        0,
        1
      ],
      "name": ""
    },
    {
      "name": ""
    },
    {
      "children": [
        10
      ],
      "matrix": [
        2.2204460492503131e-16,
        0,
        -1,
        0,
        0,
        1,
        0,
        0,
        1,
        0,
        2.2204460492503131e-16,
        0,
        0,
        0,
        1077.78125,
        1
      ],
      "name": "Camera"
    },
    {
      "name": ""
    }
  ],
  "samplers": [
    {
      "magFilter": 9729,
      "minFilter": 9987,
      "wrapS": 10497,
      "wrapT": 10497
    }
  ],
  "scene": 0,
  "scenes": [
    {
      "name": "OSG_Scene",
      "nodes": [
        0
      ]
    }
  ],
  "textures": [
    {
      "sampler": 0,
      "source": 0
    },
    {
      "sampler": 0,
      "source": 1
    },
    {
      "sampler": 0,
      "source": 2
    }
  ]
}

